# xmcd
#
# Track frame offsets:
#	150
#	21077
#	39922
#	57320
#	78450
#	94030
#	108230
#	120752
#	134392
#	159442
#	171672
#	195727
#	213107
#	225120
#	233482
#	245622
#
# Disc length: 3418 seconds
#
# Revision: 0
# Processed by: cddbd v1.5.1PL0 Copyright (c) Steve Scherf et al.
# Submitted via: dBpowerAMP V4.0
#
DISCID=be0d5810
DTITLE=Billy Moffett's Playboy Club - Juice
DYEAR=1993
DGENRE=Blues
TTITLE0=Amnesia
TTITLE1=Juice - morning has broken - prologue
TTITLE2=Rasputin
TTITLE3=Velvet Skies
TTITLE4=Daddy Cool
TTITLE5=Mondo Cannibale
TTITLE6=Rivers of Babylon
TTITLE7=Room
TTITLE8=I'm gonny miss you
TTITLE9=Raincoat Suzie Wong
TTITLE10=Babies
TTITLE11=Ma Baker
TTITLE12=Psychedelic Jaqueline
TTITLE13=China Rock
TTITLE14=Juice - the rain parade - epilogue
TTITLE15=B.O.'s Dream
EXTD=
EXTT0=
EXTT1=
EXTT2=
EXTT3=
EXTT4=
EXTT5=
EXTT6=
EXTT7=
EXTT8=
EXTT9=
EXTT10=
EXTT11=
EXTT12=
EXTT13=
EXTT14=
EXTT15=
PLAYORDER=
